<mxfile host="app.diagrams.net" modified="2023-08-25T17:14:04.952Z" agent="Mozilla/5.0 (Windows NT 10.0; Win64; x64) AppleWebKit/537.36 (KHTML, like Gecko) Chrome/116.0.0.0 Safari/537.36" etag="uo1S8Qs9g9UTcHT-Y0CO" version="21.6.2" type="github">
  <diagram name="PÃ¡gina-1" id="W3OVTafVNRmhXkw4CjzO">
    <mxGraphModel dx="1120" dy="446" grid="1" gridSize="10" guides="1" tooltips="1" connect="1" arrows="1" fold="1" page="1" pageScale="1" pageWidth="827" pageHeight="1169" math="0" shadow="0">
      <root>
        <mxCell id="0" />
        <mxCell id="1" parent="0" />
        <mxCell id="Ztyv7xXe50h-QWpUFy-G-1" value="Animal" style="swimlane;fontStyle=2;align=center;verticalAlign=top;childLayout=stackLayout;horizontal=1;startSize=26;horizontalStack=0;resizeParent=1;resizeLast=0;collapsible=1;marginBottom=0;rounded=0;shadow=0;strokeWidth=1;" vertex="1" parent="1">
          <mxGeometry x="340" width="180" height="658" as="geometry">
            <mxRectangle x="230" y="140" width="160" height="26" as="alternateBounds" />
          </mxGeometry>
        </mxCell>
        <mxCell id="Ztyv7xXe50h-QWpUFy-G-2" value="- nome: str" style="text;align=left;verticalAlign=top;spacingLeft=4;spacingRight=4;overflow=hidden;rotatable=0;points=[[0,0.5],[1,0.5]];portConstraint=eastwest;" vertex="1" parent="Ztyv7xXe50h-QWpUFy-G-1">
          <mxGeometry y="26" width="180" height="26" as="geometry" />
        </mxCell>
        <mxCell id="Ztyv7xXe50h-QWpUFy-G-3" value="- cor: str" style="text;align=left;verticalAlign=top;spacingLeft=4;spacingRight=4;overflow=hidden;rotatable=0;points=[[0,0.5],[1,0.5]];portConstraint=eastwest;rounded=0;shadow=0;html=0;" vertex="1" parent="Ztyv7xXe50h-QWpUFy-G-1">
          <mxGeometry y="52" width="180" height="26" as="geometry" />
        </mxCell>
        <mxCell id="Ztyv7xXe50h-QWpUFy-G-4" value="- sexo: str" style="text;align=left;verticalAlign=top;spacingLeft=4;spacingRight=4;overflow=hidden;rotatable=0;points=[[0,0.5],[1,0.5]];portConstraint=eastwest;rounded=0;shadow=0;html=0;" vertex="1" parent="Ztyv7xXe50h-QWpUFy-G-1">
          <mxGeometry y="78" width="180" height="26" as="geometry" />
        </mxCell>
        <mxCell id="Ztyv7xXe50h-QWpUFy-G-5" value="- idade: int" style="text;align=left;verticalAlign=top;spacingLeft=4;spacingRight=4;overflow=hidden;rotatable=0;points=[[0,0.5],[1,0.5]];portConstraint=eastwest;rounded=0;shadow=0;html=0;" vertex="1" parent="Ztyv7xXe50h-QWpUFy-G-1">
          <mxGeometry y="104" width="180" height="26" as="geometry" />
        </mxCell>
        <mxCell id="Ztyv7xXe50h-QWpUFy-G-6" value="- raca: str" style="text;align=left;verticalAlign=top;spacingLeft=4;spacingRight=4;overflow=hidden;rotatable=0;points=[[0,0.5],[1,0.5]];portConstraint=eastwest;rounded=0;shadow=0;html=0;" vertex="1" parent="Ztyv7xXe50h-QWpUFy-G-1">
          <mxGeometry y="130" width="180" height="26" as="geometry" />
        </mxCell>
        <mxCell id="Ztyv7xXe50h-QWpUFy-G-7" value="- velocidade: int" style="text;align=left;verticalAlign=top;spacingLeft=4;spacingRight=4;overflow=hidden;rotatable=0;points=[[0,0.5],[1,0.5]];portConstraint=eastwest;rounded=0;shadow=0;html=0;" vertex="1" parent="Ztyv7xXe50h-QWpUFy-G-1">
          <mxGeometry y="156" width="180" height="26" as="geometry" />
        </mxCell>
        <mxCell id="Ztyv7xXe50h-QWpUFy-G-8" value="- posicao_X: int" style="text;align=left;verticalAlign=top;spacingLeft=4;spacingRight=4;overflow=hidden;rotatable=0;points=[[0,0.5],[1,0.5]];portConstraint=eastwest;rounded=0;shadow=0;html=0;" vertex="1" parent="Ztyv7xXe50h-QWpUFy-G-1">
          <mxGeometry y="182" width="180" height="26" as="geometry" />
        </mxCell>
        <mxCell id="Ztyv7xXe50h-QWpUFy-G-9" value="- posicao_Y: int" style="text;align=left;verticalAlign=top;spacingLeft=4;spacingRight=4;overflow=hidden;rotatable=0;points=[[0,0.5],[1,0.5]];portConstraint=eastwest;rounded=0;shadow=0;html=0;" vertex="1" parent="Ztyv7xXe50h-QWpUFy-G-1">
          <mxGeometry y="208" width="180" height="26" as="geometry" />
        </mxCell>
        <mxCell id="Ztyv7xXe50h-QWpUFy-G-10" value="" style="line;html=1;strokeWidth=1;align=left;verticalAlign=middle;spacingTop=-1;spacingLeft=3;spacingRight=3;rotatable=0;labelPosition=right;points=[];portConstraint=eastwest;" vertex="1" parent="Ztyv7xXe50h-QWpUFy-G-1">
          <mxGeometry y="234" width="180" height="8" as="geometry" />
        </mxCell>
        <mxCell id="Ztyv7xXe50h-QWpUFy-G-11" value="+getNome(): str" style="text;align=left;verticalAlign=top;spacingLeft=4;spacingRight=4;overflow=hidden;rotatable=0;points=[[0,0.5],[1,0.5]];portConstraint=eastwest;" vertex="1" parent="Ztyv7xXe50h-QWpUFy-G-1">
          <mxGeometry y="242" width="180" height="26" as="geometry" />
        </mxCell>
        <mxCell id="Ztyv7xXe50h-QWpUFy-G-12" value="+setNome(nome:str)" style="text;align=left;verticalAlign=top;spacingLeft=4;spacingRight=4;overflow=hidden;rotatable=0;points=[[0,0.5],[1,0.5]];portConstraint=eastwest;" vertex="1" parent="Ztyv7xXe50h-QWpUFy-G-1">
          <mxGeometry y="268" width="180" height="26" as="geometry" />
        </mxCell>
        <mxCell id="Ztyv7xXe50h-QWpUFy-G-13" value="+getCor(): str" style="text;align=left;verticalAlign=top;spacingLeft=4;spacingRight=4;overflow=hidden;rotatable=0;points=[[0,0.5],[1,0.5]];portConstraint=eastwest;rounded=0;shadow=0;html=0;" vertex="1" parent="Ztyv7xXe50h-QWpUFy-G-1">
          <mxGeometry y="294" width="180" height="26" as="geometry" />
        </mxCell>
        <mxCell id="Ztyv7xXe50h-QWpUFy-G-14" value="+setCor(cor:str)" style="text;align=left;verticalAlign=top;spacingLeft=4;spacingRight=4;overflow=hidden;rotatable=0;points=[[0,0.5],[1,0.5]];portConstraint=eastwest;rounded=0;shadow=0;html=0;" vertex="1" parent="Ztyv7xXe50h-QWpUFy-G-1">
          <mxGeometry y="320" width="180" height="26" as="geometry" />
        </mxCell>
        <mxCell id="Ztyv7xXe50h-QWpUFy-G-15" value="+getSexo(): str" style="text;align=left;verticalAlign=top;spacingLeft=4;spacingRight=4;overflow=hidden;rotatable=0;points=[[0,0.5],[1,0.5]];portConstraint=eastwest;rounded=0;shadow=0;html=0;" vertex="1" parent="Ztyv7xXe50h-QWpUFy-G-1">
          <mxGeometry y="346" width="180" height="26" as="geometry" />
        </mxCell>
        <mxCell id="Ztyv7xXe50h-QWpUFy-G-16" value="+setSexo(sexo:str)" style="text;align=left;verticalAlign=top;spacingLeft=4;spacingRight=4;overflow=hidden;rotatable=0;points=[[0,0.5],[1,0.5]];portConstraint=eastwest;rounded=0;shadow=0;html=0;" vertex="1" parent="Ztyv7xXe50h-QWpUFy-G-1">
          <mxGeometry y="372" width="180" height="26" as="geometry" />
        </mxCell>
        <mxCell id="Ztyv7xXe50h-QWpUFy-G-17" value="+getIdade(): int" style="text;align=left;verticalAlign=top;spacingLeft=4;spacingRight=4;overflow=hidden;rotatable=0;points=[[0,0.5],[1,0.5]];portConstraint=eastwest;rounded=0;shadow=0;html=0;" vertex="1" parent="Ztyv7xXe50h-QWpUFy-G-1">
          <mxGeometry y="398" width="180" height="26" as="geometry" />
        </mxCell>
        <mxCell id="Ztyv7xXe50h-QWpUFy-G-18" value="+setIdade(idade:int)" style="text;align=left;verticalAlign=top;spacingLeft=4;spacingRight=4;overflow=hidden;rotatable=0;points=[[0,0.5],[1,0.5]];portConstraint=eastwest;rounded=0;shadow=0;html=0;" vertex="1" parent="Ztyv7xXe50h-QWpUFy-G-1">
          <mxGeometry y="424" width="180" height="26" as="geometry" />
        </mxCell>
        <mxCell id="Ztyv7xXe50h-QWpUFy-G-19" value="+getRaca(): str" style="text;align=left;verticalAlign=top;spacingLeft=4;spacingRight=4;overflow=hidden;rotatable=0;points=[[0,0.5],[1,0.5]];portConstraint=eastwest;rounded=0;shadow=0;html=0;" vertex="1" parent="Ztyv7xXe50h-QWpUFy-G-1">
          <mxGeometry y="450" width="180" height="26" as="geometry" />
        </mxCell>
        <mxCell id="Ztyv7xXe50h-QWpUFy-G-20" value="+setRaca(raca:str)" style="text;align=left;verticalAlign=top;spacingLeft=4;spacingRight=4;overflow=hidden;rotatable=0;points=[[0,0.5],[1,0.5]];portConstraint=eastwest;rounded=0;shadow=0;html=0;" vertex="1" parent="Ztyv7xXe50h-QWpUFy-G-1">
          <mxGeometry y="476" width="180" height="26" as="geometry" />
        </mxCell>
        <mxCell id="Ztyv7xXe50h-QWpUFy-G-21" value="+getVelocidade(): int" style="text;align=left;verticalAlign=top;spacingLeft=4;spacingRight=4;overflow=hidden;rotatable=0;points=[[0,0.5],[1,0.5]];portConstraint=eastwest;rounded=0;shadow=0;html=0;" vertex="1" parent="Ztyv7xXe50h-QWpUFy-G-1">
          <mxGeometry y="502" width="180" height="26" as="geometry" />
        </mxCell>
        <mxCell id="Ztyv7xXe50h-QWpUFy-G-22" value="+setVelocidade(velocidade:int)" style="text;align=left;verticalAlign=top;spacingLeft=4;spacingRight=4;overflow=hidden;rotatable=0;points=[[0,0.5],[1,0.5]];portConstraint=eastwest;rounded=0;shadow=0;html=0;" vertex="1" parent="Ztyv7xXe50h-QWpUFy-G-1">
          <mxGeometry y="528" width="180" height="26" as="geometry" />
        </mxCell>
        <mxCell id="Ztyv7xXe50h-QWpUFy-G-23" value="+getPosicao_X(): int" style="text;align=left;verticalAlign=top;spacingLeft=4;spacingRight=4;overflow=hidden;rotatable=0;points=[[0,0.5],[1,0.5]];portConstraint=eastwest;rounded=0;shadow=0;html=0;" vertex="1" parent="Ztyv7xXe50h-QWpUFy-G-1">
          <mxGeometry y="554" width="180" height="26" as="geometry" />
        </mxCell>
        <mxCell id="Ztyv7xXe50h-QWpUFy-G-24" value="+setPosicao_X(posicao_X:int)" style="text;align=left;verticalAlign=top;spacingLeft=4;spacingRight=4;overflow=hidden;rotatable=0;points=[[0,0.5],[1,0.5]];portConstraint=eastwest;rounded=0;shadow=0;html=0;" vertex="1" parent="Ztyv7xXe50h-QWpUFy-G-1">
          <mxGeometry y="580" width="180" height="26" as="geometry" />
        </mxCell>
        <mxCell id="Ztyv7xXe50h-QWpUFy-G-25" value="+getPosicao_Y(): int" style="text;align=left;verticalAlign=top;spacingLeft=4;spacingRight=4;overflow=hidden;rotatable=0;points=[[0,0.5],[1,0.5]];portConstraint=eastwest;rounded=0;shadow=0;html=0;" vertex="1" parent="Ztyv7xXe50h-QWpUFy-G-1">
          <mxGeometry y="606" width="180" height="26" as="geometry" />
        </mxCell>
        <mxCell id="Ztyv7xXe50h-QWpUFy-G-26" value="+setPosicao_Y(posicao_Y: int)" style="text;align=left;verticalAlign=top;spacingLeft=4;spacingRight=4;overflow=hidden;rotatable=0;points=[[0,0.5],[1,0.5]];portConstraint=eastwest;rounded=0;shadow=0;html=0;" vertex="1" parent="Ztyv7xXe50h-QWpUFy-G-1">
          <mxGeometry y="632" width="180" height="26" as="geometry" />
        </mxCell>
        <mxCell id="Ztyv7xXe50h-QWpUFy-G-27" value="Leao" style="swimlane;fontStyle=0;align=center;verticalAlign=top;childLayout=stackLayout;horizontal=1;startSize=26;horizontalStack=0;resizeParent=1;resizeLast=0;collapsible=1;marginBottom=0;rounded=0;shadow=0;strokeWidth=1;" vertex="1" parent="1">
          <mxGeometry y="760" width="180" height="80" as="geometry">
            <mxRectangle x="130" y="380" width="160" height="26" as="alternateBounds" />
          </mxGeometry>
        </mxCell>
        <mxCell id="Ztyv7xXe50h-QWpUFy-G-36" value="" style="line;html=1;strokeWidth=1;align=left;verticalAlign=middle;spacingTop=-1;spacingLeft=3;spacingRight=3;rotatable=0;labelPosition=right;points=[];portConstraint=eastwest;" vertex="1" parent="Ztyv7xXe50h-QWpUFy-G-27">
          <mxGeometry y="26" width="180" height="8" as="geometry" />
        </mxCell>
        <mxCell id="Ztyv7xXe50h-QWpUFy-G-53" value="" style="endArrow=block;endSize=10;endFill=0;shadow=0;strokeWidth=1;rounded=0;edgeStyle=elbowEdgeStyle;elbow=vertical;" edge="1" parent="1" source="Ztyv7xXe50h-QWpUFy-G-27">
          <mxGeometry width="160" relative="1" as="geometry">
            <mxPoint x="200" y="585" as="sourcePoint" />
            <mxPoint x="420" y="660" as="targetPoint" />
            <Array as="points">
              <mxPoint x="250" y="702" />
            </Array>
          </mxGeometry>
        </mxCell>
        <mxCell id="Ztyv7xXe50h-QWpUFy-G-54" style="edgeStyle=orthogonalEdgeStyle;rounded=0;orthogonalLoop=1;jettySize=auto;html=1;exitX=0.5;exitY=0;exitDx=0;exitDy=0;endArrow=none;endFill=0;" edge="1" parent="1" source="Ztyv7xXe50h-QWpUFy-G-55">
          <mxGeometry relative="1" as="geometry">
            <mxPoint x="310" y="702" as="targetPoint" />
          </mxGeometry>
        </mxCell>
        <mxCell id="Ztyv7xXe50h-QWpUFy-G-55" value="Jacare" style="swimlane;fontStyle=0;align=center;verticalAlign=top;childLayout=stackLayout;horizontal=1;startSize=26;horizontalStack=0;resizeParent=1;resizeLast=0;collapsible=1;marginBottom=0;rounded=0;shadow=0;strokeWidth=1;" vertex="1" parent="1">
          <mxGeometry x="220" y="760" width="180" height="80" as="geometry">
            <mxRectangle x="340" y="380" width="170" height="26" as="alternateBounds" />
          </mxGeometry>
        </mxCell>
        <mxCell id="Ztyv7xXe50h-QWpUFy-G-64" value="" style="line;html=1;strokeWidth=1;align=left;verticalAlign=middle;spacingTop=-1;spacingLeft=3;spacingRight=3;rotatable=0;labelPosition=right;points=[];portConstraint=eastwest;" vertex="1" parent="Ztyv7xXe50h-QWpUFy-G-55">
          <mxGeometry y="26" width="180" height="8" as="geometry" />
        </mxCell>
        <mxCell id="Ztyv7xXe50h-QWpUFy-G-81" style="edgeStyle=orthogonalEdgeStyle;rounded=0;orthogonalLoop=1;jettySize=auto;html=1;exitX=0.5;exitY=0;exitDx=0;exitDy=0;endArrow=none;endFill=0;" edge="1" parent="1" source="Ztyv7xXe50h-QWpUFy-G-82">
          <mxGeometry relative="1" as="geometry">
            <mxPoint x="420" y="672" as="targetPoint" />
            <Array as="points">
              <mxPoint x="747" y="702" />
              <mxPoint x="421" y="702" />
            </Array>
          </mxGeometry>
        </mxCell>
        <mxCell id="Ztyv7xXe50h-QWpUFy-G-82" value="Gato" style="swimlane;fontStyle=0;align=center;verticalAlign=top;childLayout=stackLayout;horizontal=1;startSize=26;horizontalStack=0;resizeParent=1;resizeLast=0;collapsible=1;marginBottom=0;rounded=0;shadow=0;strokeWidth=1;" vertex="1" parent="1">
          <mxGeometry x="670" y="760" width="170" height="80" as="geometry">
            <mxRectangle x="550" y="140" width="160" height="26" as="alternateBounds" />
          </mxGeometry>
        </mxCell>
        <mxCell id="Ztyv7xXe50h-QWpUFy-G-91" value="" style="line;html=1;strokeWidth=1;align=left;verticalAlign=middle;spacingTop=-1;spacingLeft=3;spacingRight=3;rotatable=0;labelPosition=right;points=[];portConstraint=eastwest;" vertex="1" parent="Ztyv7xXe50h-QWpUFy-G-82">
          <mxGeometry y="26" width="170" height="8" as="geometry" />
        </mxCell>
        <mxCell id="Ztyv7xXe50h-QWpUFy-G-108" style="edgeStyle=orthogonalEdgeStyle;rounded=0;orthogonalLoop=1;jettySize=auto;html=1;exitX=0.5;exitY=0;exitDx=0;exitDy=0;endArrow=none;endFill=0;" edge="1" parent="1" source="Ztyv7xXe50h-QWpUFy-G-109">
          <mxGeometry relative="1" as="geometry">
            <mxPoint x="540" y="702" as="targetPoint" />
          </mxGeometry>
        </mxCell>
        <mxCell id="Ztyv7xXe50h-QWpUFy-G-109" value="Cachorro" style="swimlane;fontStyle=0;align=center;verticalAlign=top;childLayout=stackLayout;horizontal=1;startSize=26;horizontalStack=0;resizeParent=1;resizeLast=0;collapsible=1;marginBottom=0;rounded=0;shadow=0;strokeWidth=1;" vertex="1" parent="1">
          <mxGeometry x="450" y="760" width="180" height="80" as="geometry">
            <mxRectangle x="340" y="380" width="170" height="26" as="alternateBounds" />
          </mxGeometry>
        </mxCell>
        <mxCell id="Ztyv7xXe50h-QWpUFy-G-118" value="" style="line;html=1;strokeWidth=1;align=left;verticalAlign=middle;spacingTop=-1;spacingLeft=3;spacingRight=3;rotatable=0;labelPosition=right;points=[];portConstraint=eastwest;" vertex="1" parent="Ztyv7xXe50h-QWpUFy-G-109">
          <mxGeometry y="26" width="180" height="8" as="geometry" />
        </mxCell>
        <mxCell id="Ztyv7xXe50h-QWpUFy-G-135" style="edgeStyle=orthogonalEdgeStyle;rounded=0;orthogonalLoop=1;jettySize=auto;html=1;exitX=0.5;exitY=0;exitDx=0;exitDy=0;endArrow=none;endFill=0;" edge="1" parent="1" source="Ztyv7xXe50h-QWpUFy-G-136">
          <mxGeometry relative="1" as="geometry">
            <mxPoint x="420" y="702" as="targetPoint" />
            <Array as="points">
              <mxPoint x="300" y="890" />
              <mxPoint x="420" y="890" />
            </Array>
          </mxGeometry>
        </mxCell>
        <mxCell id="Ztyv7xXe50h-QWpUFy-G-136" value="Vaca" style="swimlane;fontStyle=0;align=center;verticalAlign=top;childLayout=stackLayout;horizontal=1;startSize=26;horizontalStack=0;resizeParent=1;resizeLast=0;collapsible=1;marginBottom=0;rounded=0;shadow=0;strokeWidth=1;" vertex="1" parent="1">
          <mxGeometry x="220" y="920" width="180" height="80" as="geometry">
            <mxRectangle x="340" y="380" width="170" height="26" as="alternateBounds" />
          </mxGeometry>
        </mxCell>
        <mxCell id="Ztyv7xXe50h-QWpUFy-G-145" value="" style="line;html=1;strokeWidth=1;align=left;verticalAlign=middle;spacingTop=-1;spacingLeft=3;spacingRight=3;rotatable=0;labelPosition=right;points=[];portConstraint=eastwest;" vertex="1" parent="Ztyv7xXe50h-QWpUFy-G-136">
          <mxGeometry y="26" width="180" height="8" as="geometry" />
        </mxCell>
        <mxCell id="Ztyv7xXe50h-QWpUFy-G-162" style="edgeStyle=orthogonalEdgeStyle;rounded=0;orthogonalLoop=1;jettySize=auto;html=1;exitX=0.5;exitY=0;exitDx=0;exitDy=0;endArrow=none;endFill=0;" edge="1" parent="1" source="Ztyv7xXe50h-QWpUFy-G-163">
          <mxGeometry relative="1" as="geometry">
            <mxPoint x="420" y="702" as="targetPoint" />
            <Array as="points">
              <mxPoint x="540" y="890" />
              <mxPoint x="420" y="890" />
            </Array>
          </mxGeometry>
        </mxCell>
        <mxCell id="Ztyv7xXe50h-QWpUFy-G-163" value="Capivara" style="swimlane;fontStyle=0;align=center;verticalAlign=top;childLayout=stackLayout;horizontal=1;startSize=26;horizontalStack=0;resizeParent=1;resizeLast=0;collapsible=1;marginBottom=0;rounded=0;shadow=0;strokeWidth=1;" vertex="1" parent="1">
          <mxGeometry x="450" y="920" width="180" height="80" as="geometry">
            <mxRectangle x="340" y="380" width="170" height="26" as="alternateBounds" />
          </mxGeometry>
        </mxCell>
        <mxCell id="Ztyv7xXe50h-QWpUFy-G-172" value="" style="line;html=1;strokeWidth=1;align=left;verticalAlign=middle;spacingTop=-1;spacingLeft=3;spacingRight=3;rotatable=0;labelPosition=right;points=[];portConstraint=eastwest;" vertex="1" parent="Ztyv7xXe50h-QWpUFy-G-163">
          <mxGeometry y="26" width="180" height="8" as="geometry" />
        </mxCell>
      </root>
    </mxGraphModel>
  </diagram>
</mxfile>
